{
  "accessors": [
    {
      "bufferView": 2,
      "componentType": 5126,
      "count": 65532,
      "max": [
        1.5810699462890625,
        5.59522008895874,
        0.17774100601673126
      ],
      "min": [
        -2.2665200233459473,
        -4.678619861602783,
        -0.2507610023021698
      ],
      "type": "VEC3"
    },
    {
      "bufferView": 2,
      "byteOffset": 786384,
      "componentType": 5126,
      "count": 65532,
      "max": [
        0.9998731017112732,
        0.9994254112243652,
        1.0
      ],
      "min": [
        -0.9999755620956421,
        -0.9992753267288208,
        -0.8998356461524963
      ],
      "type": "VEC3"
    },
    {
      "bufferView": 1,
      "componentType": 5126,
      "count": 65532,
      "max": [
        0.9999679923057556,
        0.9992009997367859
      ],
      "min": [
        2.2533800802193582e-05,
        0.0058571998961269855
      ],
      "type": "VEC2"
    },
    {
      "bufferView": 0,
      "componentType": 5125,
      "count": 284274,
      "type": "SCALAR"
    },
    {
      "bufferView": 2,
      "byteOffset": 1572768,
      "componentType": 5126,
      "count": 65532,
      "max": [
        1.7232500314712524,
        5.507629871368408,
        0.20192000269889832
      ],
      "min": [
        -2.3186700344085693,
        -4.610420227050781,
        -0.25081300735473633
      ],
      "type": "VEC3"
    },
    {
      "bufferView": 2,
      "byteOffset": 2359152,
      "componentType": 5126,
      "count": 65532,
      "max": [
        0.9997658133506775,
        0.9999728202819824,
        0.9999995827674866
      ],
      "min": [
        -0.9998131394386292,
        -0.9998928308486938,
        -0.929449737071991
      ],
      "type": "VEC3"
    },
    {
      "bufferView": 1,
      "byteOffset": 524256,
      "componentType": 5126,
      "count": 65532,
      "max": [
        0.9999359846115112,
        0.9952890276908875
      ],
      "min": [
        1.9073400835623033e-05,
        0.00184069003444165
      ],
      "type": "VEC2"
    },
    {
      "bufferView": 0,
      "byteOffset": 1137096,
      "componentType": 5125,
      "count": 243831,
      "type": "SCALAR"
    },
    {
      "bufferView": 2,
      "byteOffset": 3145536,
      "componentType": 5126,
      "count": 30780,
      "max": [
        1.554110050201416,
        5.683259963989258,
        0.20127199590206146
      ],
      "min": [
        -2.008080005645752,
        -3.2697999477386475,
        -0.1980230063199997
      ],
      "type": "VEC3"
    },
    {
      "bufferView": 2,
      "byteOffset": 3514896,
      "componentType": 5126,
      "count": 30780,
      "max": [
        0.9993099570274353,
        0.9996559023857117,
        0.9999992847442627
      ],
      "min": [
        -0.9999999403953552,
        -0.9998533725738525,
        -0.9738851189613342
      ],
      "type": "VEC3"
    },
    {
      "bufferView": 1,
      "byteOffset": 1048512,
      "componentType": 5126,
      "count": 30780,
      "max": [
        0.9999690055847168,
        0.9994199872016907
      ],
      "min": [
        0.010903200134634972,
        0.0017143000150099397
      ],
      "type": "VEC2"
    },
    {
      "bufferView": 0,
      "byteOffset": 2112420,
      "componentType": 5125,
      "count": 120672,
      "type": "SCALAR"
    }
  ],
  "asset": {
    "extras": {
      "author": "SPLEEN VISION (https://sketchfab.com/spleen.vision)",
      "license": "CC-BY-4.0 (http://creativecommons.org/licenses/by/4.0/)",
      "source": "https://sketchfab.com/3d-models/pavement-in-the-park-a953218836004ffdb4004bfb65d33c98",
      "title": "pavement in the park"
    },
    "generator": "Sketchfab-12.66.0",
    "version": "2.0"
  },
  "bufferViews": [
    {
      "buffer": 0,
      "byteLength": 2595108,
      "name": "floatBufferViews",
      "target": 34963
    },
    {
      "buffer": 0,
      "byteLength": 1294752,
      "byteOffset": 2595108,
      "byteStride": 8,
      "name": "floatBufferViews",
      "target": 34962
    },
    {
      "buffer": 0,
      "byteLength": 3884256,
      "byteOffset": 3889860,
      "byteStride": 12,
      "name": "floatBufferViews",
      "target": 34962
    }
  ],
  "buffers": [
    {
      "byteLength": 7774116,
      "uri": "scene.bin"
    }
  ],
  "extensionsUsed": [
    "KHR_materials_unlit"
  ],
  "images": [
    {
      "uri": "textures/textured_0_baseColor.jpeg"
    }
  ],
  "materials": [
    {
      "doubleSided": true,
      "extensions": {
        "KHR_materials_unlit": {}
      },
      "name": "textured_0",
      "pbrMetallicRoughness": {
        "baseColorTexture": {
          "index": 0
        },
        "metallicFactor": 0.0
      }
    }
  ],
  "meshes": [
    {
      "name": "Object_0",
      "primitives": [
        {
          "attributes": {
            "NORMAL": 1,
            "POSITION": 0,
            "TEXCOORD_0": 2
          },
          "indices": 3,
          "material": 0,
          "mode": 4
        }
      ]
    },
    {
      "name": "Object_1",
      "primitives": [
        {
          "attributes": {
            "NORMAL": 5,
            "POSITION": 4,
            "TEXCOORD_0": 6
          },
          "indices": 7,
          "material": 0,
          "mode": 4
        }
      ]
    },
    {
      "name": "Object_2",
      "primitives": [
        {
          "attributes": {
            "NORMAL": 9,
            "POSITION": 8,
            "TEXCOORD_0": 10
          },
          "indices": 11,
          "material": 0,
          "mode": 4
        }
      ]
    }
  ],
  "nodes": [
    {
      "children": [
        1
      ],
      "matrix": [
        0.6903891563415527,
        0.0,
        0.0,
        0.0,
        0.0,
        1.5329718746438575e-16,
        -0.6903891563415527,
        0.0,
        0.0,
        0.6903891563415527,
        1.5329718746438575e-16,
        0.0,
        0.0,
        0.0,
        0.0,
        1.0
      ],
      "name": "Sketchfab_model"
    },
    {
      "children": [
        2,
        3,
        4
      ],
      "name": "textured.obj.cleaner.materialmerger.gles"
    },
    {
      "mesh": 0,
      "name": "Object_2"
    },
    {
      "mesh": 1,
      "name": "Object_3"
    },
    {
      "mesh": 2,
      "name": "Object_4"
    }
  ],
  "samplers": [
    {
      "magFilter": 9729,
      "minFilter": 9987,
      "wrapS": 10497,
      "wrapT": 10497
    }
  ],
  "scene": 0,
  "scenes": [
    {
      "name": "Sketchfab_Scene",
      "nodes": [
        0
      ]
    }
  ],
  "textures": [
    {
      "sampler": 0,
      "source": 0
    }
  ]
}
